<?xml version="1.0" encoding="utf-8"?>
<svg xmlns="http://www.w3.org/2000/svg"
	xmlns:xlink="http://www.w3.org/1999/xlink"
	width="19px" height="19px" viewBox="0 0 19 19">
<path fillRule="evenodd" d="M 18.82 5.42C 18.82 5.42 16.18 8.23 16.18 8.23 16.17 8.35 15.32 13.66 15.27 13.98 15.27 13.98 15.3 16.91 15.3 16.91 15.31 17.38 14.93 17.76 14.46 17.76 14.46 17.76 14.46 17.76 14.45 17.76 13.99 17.76 13.61 17.39 13.6 16.93 13.6 16.93 13.57 13.93 13.57 13.93 13.56 13.88 13.57 13.83 13.58 13.79 13.58 13.79 13.8 12.41 13.8 12.41 13.8 12.41 12.95 12.25 12.95 12.25 12.95 12.25 12.01 13.4 12.01 13.4 12.01 13.4 12.01 15.8 12.01 15.8 12.01 16.26 11.63 16.64 11.16 16.64 11.15 16.64 11.13 16.64 11.12 16.64 11.12 16.64 11.12 13.4 11.12 13.4 11.12 13.02 10.99 12.64 10.74 12.34 10.74 12.34 10.71 12.31 10.71 12.31 10.71 12.31 11.61 11.22 11.61 11.22 12.19 7.48 12.14 7.74 12.18 7.61 12.18 7.61 10.54 4.13 10.54 4.13 10.38 3.79 10.53 3.39 10.87 3.24 11.21 3.08 11.62 3.23 11.77 3.56 11.77 3.56 13.19 6.57 13.19 6.57 13.41 6.5 13.65 6.48 13.89 6.52 13.89 6.52 14.89 6.67 14.89 6.67 15.12 6.71 15.35 6.8 15.54 6.94 15.54 6.94 17.82 4.51 17.82 4.51 18.08 4.24 18.51 4.22 18.78 4.47 19.06 4.73 19.07 5.15 18.82 5.42ZM 14.49 5.95C 13.6 5.81 12.99 4.99 13.14 4.11 13.22 3.56 13.6 3.11 14.08 2.9 14 2.83 13.91 2.76 13.8 2.69 13.75 2.66 13.72 2.6 13.73 2.54 13.74 2.49 13.78 2.44 13.84 2.42 14.11 2.33 14.42 2.37 14.71 2.47 14.67 2.37 14.62 2.27 14.56 2.16 14.53 2.11 14.53 2.05 14.56 2 14.6 1.95 14.66 1.93 14.72 1.94 15.3 2.03 15.75 2.71 15.91 3.09 15.93 3.16 15.96 3.23 15.97 3.3 16.28 3.65 16.43 4.12 16.35 4.62 16.21 5.49 15.38 6.09 14.49 5.95ZM 9.41 17.65C 8.85 17.65 8.39 17.2 8.39 16.64 8.39 16.64 8.39 13.76 8.39 13.76 8.39 13.76 7.26 12.38 7.26 12.38 7.26 12.38 6.25 12.57 6.25 12.57 6.25 12.57 6.51 14.23 6.51 14.23 6.52 14.28 6.52 14.34 6.52 14.4 6.52 14.4 6.48 18.01 6.48 18.01 6.47 18.56 6.01 19 5.46 19 5.45 19 5.45 19 5.44 19 4.88 18.99 4.43 18.54 4.44 17.98 4.44 17.98 4.48 14.46 4.48 14.46 3.86 10.6 3.39 7.55 3.39 7.55 3.39 7.55 0.22 4.19 0.22 4.19-0.09 3.86-0.07 3.35 0.26 3.05 0.59 2.75 1.11 2.76 1.41 3.09 1.41 3.09 4.16 6 4.16 6 4.39 5.84 4.65 5.73 4.93 5.69 4.93 5.69 6.13 5.5 6.13 5.5 6.42 5.46 6.71 5.48 6.98 5.57 6.98 5.57 8.67 1.95 8.67 1.95 8.86 1.55 9.35 1.37 9.76 1.56 10.17 1.75 10.34 2.23 10.16 2.63 10.16 2.63 8.19 6.82 8.19 6.82 8.19 6.82 8.19 6.82 8.87 11.15 8.87 11.15 10.21 12.77 10.21 12.77 10.35 12.95 10.43 13.17 10.43 13.4 10.43 13.4 10.43 16.64 10.43 16.64 10.43 17.2 9.98 17.65 9.41 17.65ZM 5.41 4.82C 4.35 4.99 3.34 4.27 3.18 3.22 3.08 2.63 3.27 2.06 3.64 1.64 3.65 1.56 3.68 1.47 3.71 1.39 3.9 0.93 4.44 0.12 5.14 0 5.21-0.01 5.28 0.02 5.33 0.08 5.37 0.14 5.37 0.21 5.33 0.28 5.25 0.4 5.2 0.53 5.16 0.65 5.5 0.53 5.87 0.47 6.2 0.58 6.27 0.6 6.32 0.66 6.32 0.73 6.33 0.8 6.3 0.87 6.24 0.91 6.11 0.99 6 1.07 5.9 1.15 6.49 1.41 6.93 1.95 7.04 2.62 7.21 3.67 6.48 4.66 5.41 4.82Z" fill="rgb(35,123,151)"/></svg>