<?xml version="1.0" encoding="utf-8"?>
<svg xmlns="http://www.w3.org/2000/svg"
	xmlns:xlink="http://www.w3.org/1999/xlink"
	width="18px" height="19px" viewBox="0 0 18 19">
<path fillRule="evenodd" d="M 16.35 19C 16.35 19 1.65 19 1.65 19 0.74 19-0 18.23-0 17.29-0 17.29-0 3.82-0 3.82-0 2.89 0.72 2.14 1.6 2.12 1.6 2.12 1.6 4.41 1.6 4.41 1.6 5.45 2.42 6.29 3.42 6.29 3.42 6.29 4.57 6.29 4.57 6.29 5.58 6.29 6.41 5.45 6.41 4.41 6.41 4.41 6.41 2.11 6.41 2.11 6.41 2.11 11.59 2.11 11.59 2.11 11.59 2.11 11.59 4.41 11.59 4.41 11.59 5.45 12.42 6.29 13.43 6.29 13.43 6.29 14.57 6.29 14.57 6.29 15.58 6.29 16.4 5.45 16.4 4.41 16.4 4.41 16.4 2.12 16.4 2.12 17.28 2.14 18 2.89 18 3.82 18 3.82 18 17.29 18 17.29 18 18.23 17.26 19 16.35 19ZM 15.86 9.49C 15.86 9.08 15.54 8.75 15.15 8.75 15.15 8.75 2.82 8.75 2.82 8.75 2.42 8.75 2.1 9.08 2.1 9.49 2.1 9.49 2.1 16.45 2.1 16.45 2.1 16.85 2.42 17.18 2.82 17.18 2.82 17.18 15.15 17.18 15.15 17.18 15.54 17.18 15.86 16.85 15.86 16.45 15.86 16.45 15.86 9.49 15.86 9.49ZM 13.37 16.18C 13.37 16.18 11.91 16.18 11.91 16.18 11.68 16.18 11.5 15.99 11.5 15.75 11.5 15.75 11.5 14.24 11.5 14.24 11.5 14 11.68 13.81 11.91 13.81 11.91 13.81 13.37 13.81 13.37 13.81 13.6 13.81 13.79 14 13.79 14.24 13.79 14.24 13.79 15.75 13.79 15.75 13.79 15.99 13.6 16.18 13.37 16.18ZM 13.37 12.42C 13.37 12.42 11.91 12.42 11.91 12.42 11.68 12.42 11.5 12.22 11.5 11.99 11.5 11.99 11.5 10.48 11.5 10.48 11.5 10.24 11.68 10.05 11.91 10.05 11.91 10.05 13.37 10.05 13.37 10.05 13.6 10.05 13.79 10.24 13.79 10.48 13.79 10.48 13.79 11.99 13.79 11.99 13.79 12.22 13.6 12.42 13.37 12.42ZM 9.73 16.18C 9.73 16.18 8.27 16.18 8.27 16.18 8.04 16.18 7.85 15.99 7.85 15.75 7.85 15.75 7.85 14.24 7.85 14.24 7.85 14 8.04 13.81 8.27 13.81 8.27 13.81 9.73 13.81 9.73 13.81 9.96 13.81 10.15 14 10.15 14.24 10.15 14.24 10.15 15.75 10.15 15.75 10.15 15.99 9.96 16.18 9.73 16.18ZM 9.73 12.42C 9.73 12.42 8.27 12.42 8.27 12.42 8.04 12.42 7.85 12.22 7.85 11.99 7.85 11.99 7.85 10.48 7.85 10.48 7.85 10.24 8.04 10.05 8.27 10.05 8.27 10.05 9.73 10.05 9.73 10.05 9.96 10.05 10.15 10.24 10.15 10.48 10.15 10.48 10.15 11.99 10.15 11.99 10.15 12.22 9.96 12.42 9.73 12.42ZM 6.08 16.18C 6.08 16.18 4.63 16.18 4.63 16.18 4.4 16.18 4.21 15.99 4.21 15.75 4.21 15.75 4.21 14.24 4.21 14.24 4.21 14 4.4 13.81 4.63 13.81 4.63 13.81 6.08 13.81 6.08 13.81 6.32 13.81 6.5 14 6.5 14.24 6.5 14.24 6.5 15.75 6.5 15.75 6.5 15.99 6.32 16.18 6.08 16.18ZM 6.08 12.42C 6.08 12.42 4.63 12.42 4.63 12.42 4.4 12.42 4.21 12.22 4.21 11.99 4.21 11.99 4.21 10.48 4.21 10.48 4.21 10.24 4.4 10.05 4.63 10.05 4.63 10.05 6.08 10.05 6.08 10.05 6.32 10.05 6.5 10.24 6.5 10.48 6.5 10.48 6.5 11.99 6.5 11.99 6.5 12.22 6.32 12.42 6.08 12.42ZM 14.55 5.06C 14.55 5.06 13.41 5.06 13.41 5.06 13.07 5.06 12.79 4.77 12.79 4.41 12.79 4.41 12.79 0.64 12.79 0.64 12.79 0.29 13.07-0 13.41-0 13.41-0 14.55-0 14.55-0 14.89-0 15.17 0.29 15.17 0.64 15.17 0.64 15.17 4.41 15.17 4.41 15.17 4.77 14.89 5.06 14.55 5.06ZM 4.56 5.06C 4.56 5.06 3.42 5.06 3.42 5.06 3.08 5.06 2.8 4.77 2.8 4.41 2.8 4.41 2.8 0.64 2.8 0.64 2.8 0.29 3.08-0 3.42-0 3.42-0 4.56-0 4.56-0 4.9-0 5.18 0.29 5.18 0.64 5.18 0.64 5.18 4.41 5.18 4.41 5.18 4.77 4.9 5.06 4.56 5.06Z" fill="rgb(35,123,151)"/></svg>