<?xml version="1.0" encoding="utf-8"?>
<svg xmlns="http://www.w3.org/2000/svg"
	xmlns:xlink="http://www.w3.org/1999/xlink"
	width="19px" height="19px" viewBox="0 0 19 19">
<path fillRule="evenodd" d="M 18.68 15.33C 18.62 15.39 18.54 15.42 18.46 15.42 18.38 15.42 18.3 15.39 18.24 15.33 18.11 15.21 18.11 15.01 18.24 14.88 18.24 14.88 18.46 14.66 18.46 14.66 18.58 14.54 18.78 14.54 18.91 14.66 19.03 14.78 19.03 14.98 18.91 15.11 18.91 15.11 18.68 15.33 18.68 15.33ZM 17.25 16.77C 17.19 16.83 17.11 16.86 17.02 16.86 16.94 16.86 16.86 16.83 16.8 16.77 16.68 16.64 16.68 16.44 16.8 16.32 16.8 16.32 17.28 15.84 17.28 15.84 17.4 15.72 17.6 15.72 17.73 15.84 17.85 15.96 17.85 16.16 17.73 16.29 17.73 16.29 17.25 16.77 17.25 16.77ZM 16.52 15.52C 16.52 15.52 12.67 15.52 12.67 15.52 12.49 15.52 12.35 15.37 12.35 15.2 12.35 15.02 12.49 14.88 12.67 14.88 12.67 14.88 16.26 14.88 16.26 14.88 16.26 14.88 17.12 14.03 17.12 14.03 17.24 13.9 17.44 13.9 17.56 14.03 17.69 14.15 17.69 14.35 17.56 14.47 17.56 14.47 16.52 15.52 16.52 15.52ZM 9.87 17.34C 9.87 17.34 5.01 10.31 5.01 10.31 3.19 7.89 3.46 3.9 5.58 1.78 6.73 0.63 8.25-0 9.87-0 11.49-0 13.02 0.63 14.17 1.78 16.29 3.9 16.55 7.89 14.73 10.32 14.73 10.32 9.87 17.34 9.87 17.34ZM 9.93 3.8C 8.71 3.8 7.71 4.79 7.71 6.02 7.71 7.24 8.71 8.23 9.93 8.23 11.15 8.23 12.15 7.24 12.15 6.02 12.15 4.79 11.15 3.8 9.93 3.8ZM 7.28 15.2C 7.28 15.37 7.14 15.52 6.97 15.52 6.97 15.52 2.22 15.52 2.22 15.52 2.18 15.52 2.13 15.52 2.09 15.53 2.09 15.53 1.97 15.57 1.97 15.57 1.96 15.57 1.95 15.58 1.94 15.58 1.94 15.58 1.88 15.62 1.88 15.62 1.83 15.65 1.8 15.67 1.77 15.7 1.77 15.7 0.54 16.93 0.54 16.93 0.48 16.99 0.4 17.02 0.32 17.02 0.24 17.02 0.15 16.99 0.09 16.93-0.03 16.81-0.03 16.61 0.09 16.48 0.09 16.48 1.32 15.25 1.32 15.25 1.38 15.2 1.44 15.14 1.51 15.1 1.54 15.08 1.57 15.06 1.6 15.05 1.6 15.05 1.63 15.03 1.63 15.03 1.66 15.01 1.7 14.99 1.73 14.98 1.77 14.97 1.8 14.95 1.84 14.95 1.84 14.95 1.88 14.93 1.88 14.93 1.91 14.92 1.94 14.91 1.97 14.91 2.05 14.89 2.14 14.88 2.22 14.88 2.22 14.88 6.97 14.88 6.97 14.88 7.14 14.88 7.28 15.02 7.28 15.2ZM 0.32 18.24C 0.44 18.11 0.64 18.11 0.76 18.24 0.89 18.36 0.89 18.56 0.76 18.68 0.76 18.68 0.54 18.91 0.54 18.91 0.48 18.97 0.4 19 0.32 19 0.24 19 0.15 18.97 0.09 18.91-0.03 18.78-0.03 18.58 0.09 18.46 0.09 18.46 0.32 18.24 0.32 18.24ZM 1.54 17.01C 1.66 16.89 1.86 16.89 1.99 17.01 2.11 17.14 2.11 17.34 1.99 17.46 1.99 17.46 1.58 17.87 1.58 17.87 1.52 17.93 1.44 17.96 1.36 17.96 1.27 17.96 1.19 17.93 1.13 17.87 1.01 17.74 1.01 17.54 1.13 17.42 1.13 17.42 1.54 17.01 1.54 17.01ZM 2.73 17.1C 2.55 17.1 2.41 16.96 2.41 16.78 2.41 16.61 2.55 16.47 2.73 16.47 2.73 16.47 3.31 16.47 3.31 16.47 3.48 16.47 3.62 16.61 3.62 16.78 3.62 16.96 3.48 17.1 3.31 17.1 3.31 17.1 2.73 17.1 2.73 17.1ZM 4.46 17.1C 4.28 17.1 4.14 16.96 4.14 16.78 4.14 16.61 4.28 16.47 4.46 16.47 4.46 16.47 5.03 16.47 5.03 16.47 5.21 16.47 5.35 16.61 5.35 16.78 5.35 16.96 5.21 17.1 5.03 17.1 5.03 17.1 4.46 17.1 4.46 17.1ZM 6.19 17.1C 6.01 17.1 5.87 16.96 5.87 16.78 5.87 16.61 6.01 16.47 6.19 16.47 6.19 16.47 6.76 16.47 6.76 16.47 6.94 16.47 7.08 16.61 7.08 16.78 7.08 16.96 6.94 17.1 6.76 17.1 6.76 17.1 6.19 17.1 6.19 17.1ZM 7.92 17.1C 7.74 17.1 7.6 16.96 7.6 16.78 7.6 16.61 7.74 16.47 7.92 16.47 7.92 16.47 8.23 16.47 8.23 16.47 8.41 16.47 8.55 16.61 8.55 16.78 8.55 16.96 8.41 17.1 8.23 17.1 8.23 17.1 7.92 17.1 7.92 17.1ZM 11.4 17.1C 11.23 17.1 11.08 16.96 11.08 16.78 11.08 16.61 11.23 16.47 11.4 16.47 11.4 16.47 11.72 16.47 11.72 16.47 11.89 16.47 12.03 16.61 12.03 16.78 12.03 16.96 11.89 17.1 11.72 17.1 11.72 17.1 11.4 17.1 11.4 17.1ZM 13.07 17.1C 12.89 17.1 12.75 16.96 12.75 16.78 12.75 16.61 12.89 16.47 13.07 16.47 13.07 16.47 13.74 16.47 13.74 16.47 13.92 16.47 14.06 16.61 14.06 16.78 14.06 16.96 13.92 17.1 13.74 17.1 13.74 17.1 13.07 17.1 13.07 17.1ZM 15.1 17.1C 14.92 17.1 14.78 16.96 14.78 16.78 14.78 16.61 14.92 16.47 15.1 16.47 15.1 16.47 15.77 16.47 15.77 16.47 15.95 16.47 16.09 16.61 16.09 16.78 16.09 16.96 15.95 17.1 15.77 17.1 15.77 17.1 15.1 17.1 15.1 17.1ZM 2.5 18.05C 2.5 18.05 16.78 18.05 16.78 18.05 16.82 18.05 16.87 18.05 16.91 18.04 16.91 18.04 16.99 18.01 16.99 18.01 17 18.01 17.01 18.01 17.02 18 17.04 18 17.05 17.99 17.06 17.98 17.06 17.98 17.12 17.95 17.12 17.95 17.17 17.92 17.2 17.89 17.23 17.86 17.23 17.86 18.46 16.64 18.46 16.64 18.58 16.51 18.78 16.51 18.91 16.64 19.03 16.76 19.03 16.96 18.91 17.08 18.91 17.08 17.68 18.31 17.68 18.31 17.62 18.37 17.56 18.42 17.49 18.47 17.46 18.49 17.43 18.5 17.41 18.51 17.41 18.51 17.38 18.53 17.38 18.53 17.34 18.55 17.31 18.57 17.27 18.59 17.23 18.6 17.2 18.61 17.16 18.62 17.16 18.62 17.12 18.63 17.12 18.63 17.09 18.64 17.06 18.65 17.03 18.66 16.95 18.67 16.87 18.68 16.78 18.68 16.78 18.68 2.72 18.68 2.72 18.68 2.72 18.68 2.42 18.93 2.42 18.93 2.36 18.98 2.29 19 2.22 19 2.12 19 2.03 18.96 1.97 18.88 1.86 18.75 1.88 18.55 2.02 18.44 2.02 18.44 2.5 18.05 2.5 18.05Z" fill="rgb(3,103,135)"/></svg>